<svg width="22" height="9" viewBox="0 0 22 9" fill="none" xmlns="http://www.w3.org/2000/svg">
<path d="M1.5 1.96652C1.5 1.69038 1.27614 1.46652 1 1.46652C0.723858 1.46652 0.5 1.69038 0.5 1.96652H1.5ZM1 8.22831H0.5C0.5 8.50445 0.723858 8.72831 1 8.72831V8.22831ZM7.16 8.72831C7.43614 8.72831 7.66 8.50445 7.66 8.22831C7.66 7.95217 7.43614 7.72831 7.16 7.72831V8.72831ZM20.664 5.59852C20.8684 5.78411 21.1847 5.76879 21.3702 5.56431C21.5558 5.35983 21.5405 5.04362 21.336 4.85803L20.664 5.59852ZM0.5 1.96652V8.22831H1.5V1.96652H0.5ZM1 8.72831H7.16V7.72831H1V8.72831ZM1.40997 8.51453C3.01108 6.22114 5.47492 3.34169 8.69305 2.10743C10.2892 1.49525 12.0757 1.28582 14.0543 1.75951C16.0382 2.23446 18.2457 3.40371 20.664 5.59852L21.336 4.85803C18.8263 2.58014 16.4731 1.31032 14.2872 0.786989C12.0959 0.262395 10.1034 0.495479 8.33495 1.17375C4.82375 2.52041 2.21558 5.61369 0.590026 7.94209L1.40997 8.51453Z" fill="white"/>
</svg>
