<svg width="23" height="9" viewBox="0 0 23 9" fill="none" xmlns="http://www.w3.org/2000/svg">
<path d="M21.5 7.48999C21.5 7.76614 21.7239 7.98999 22 7.98999C22.2761 7.98999 22.5 7.76614 22.5 7.48999H21.5ZM22 1.22821H22.5C22.5 0.952065 22.2761 0.728207 22 0.728207V1.22821ZM15.56 0.728207C15.2839 0.728207 15.06 0.952065 15.06 1.22821C15.06 1.50435 15.2839 1.72821 15.56 1.72821V0.728207ZM1.32779 2.85066C1.11926 2.66963 0.803463 2.69192 0.622433 2.90044C0.441402 3.10897 0.46369 3.42476 0.672215 3.60579L1.32779 2.85066ZM22.5 7.48999V1.22821H21.5V7.48999H22.5ZM22 0.728207H15.56V1.72821H22V0.728207ZM21.5961 0.933434C19.9361 3.20786 17.344 5.84112 13.958 6.83621C10.6159 7.8184 6.38115 7.23774 1.32779 2.85066L0.672215 3.60579C5.92285 8.16413 10.5014 8.89435 14.24 7.79563C17.9347 6.7098 20.6906 3.87035 22.4039 1.52298L21.5961 0.933434Z" fill="white"/>
</svg>
